HIERARCHY
ROOT Hips
{
	OFFSET 0.000000 0.220767 0.000000
	CHANNELS 6 Xposition Yposition Zposition Zrotation Yrotation Xrotation 
	JOINT Bip01_Spine
	{
		OFFSET -0.001079 0.058795 0.012063
		CHANNELS 3 Zrotation Yrotation Xrotation
		JOINT Bip01_Pelvis
		{
			OFFSET 0.001176 0.002639 -0.013141
			CHANNELS 3 Zrotation Yrotation Xrotation
			JOINT Bip01_Tail
			{
				OFFSET 0.033393 -0.000001 -0.373196
				CHANNELS 3 Zrotation Yrotation Xrotation
				JOINT Bip01_Tail1
				{
					OFFSET 0.028925 0.118737 -0.323262
					CHANNELS 3 Zrotation Yrotation Xrotation
					JOINT Bip01_Tail2
					{
						OFFSET 0.014110 0.147763 -0.157689
						CHANNELS 3 Zrotation Yrotation Xrotation
						JOINT Bip01_Tail3
						{
							OFFSET 0.006350 0.219007 -0.070961
							CHANNELS 3 Zrotation Yrotation Xrotation
							JOINT Bip01_Tail4
							{
								OFFSET -0.002116 0.200536 0.023652
								CHANNELS 3 Zrotation Yrotation Xrotation
								JOINT Bip01_Tail5
								{
									OFFSET -0.016930 0.192622 0.189225
									CHANNELS 3 Zrotation Yrotation Xrotation
									JOINT Bip01_Tail6
									{
										OFFSET -0.031276 -0.047494 0.349542
										CHANNELS 3 Zrotation Yrotation Xrotation
										End Site #name: Bip01_TailNub
										{
											OFFSET -0.002354 -0.432737 0.026283
										}
									}
								}
							}
						}
					}
				}
			}
		}
		End Site #name: Bip01_SpineR
		{
			OFFSET -0.079583 -0.010550 0.334166
		}
		End Site #name: Bip01_SpineL
		{
			OFFSET 0.018992 -0.010550 0.342986
		}
		JOINT Bip01_R_Thigh_1
		{
			OFFSET -0.112529 -0.107732 0.124644
			CHANNELS 3 Zrotation Yrotation Xrotation
			JOINT Bip01_R_Thigh1_1
			{
				OFFSET -0.121520 -0.019259 0.002813
				CHANNELS 3 Zrotation Yrotation Xrotation
				JOINT Bip01_R_Calf_1
				{
					OFFSET -0.158346 0.112068 -0.029973
					CHANNELS 3 Zrotation Yrotation Xrotation
					JOINT Bip01_R_Foot_1
					{
						OFFSET -0.122351 -0.100821 0.053425
						CHANNELS 3 Zrotation Yrotation Xrotation
						End Site #name: Bip01_R_FootNub_1
						{
							OFFSET -0.039686 -0.141775 0.087999
						}
					}
				}
			}
		}
		JOINT Bip01_R_Clavicle
		{
			OFFSET -0.122325 -0.086201 0.205233
			CHANNELS 3 Zrotation Yrotation Xrotation
			JOINT Bip01_R_UpperArm
			{
				OFFSET -0.119243 -0.009831 0.107776
				CHANNELS 3 Zrotation Yrotation Xrotation
				JOINT Bip01_R_Forearm
				{
					OFFSET -0.209812 0.103016 -0.034414
					CHANNELS 3 Zrotation Yrotation Xrotation
					JOINT Bip01_R_Hand
					{
						OFFSET -0.065239 -0.034382 0.182545
						CHANNELS 3 Zrotation Yrotation Xrotation
						End Site #name: Bip01_R_Finger0
						{
							OFFSET -0.009292 -0.052120 0.228434
						}
					}
				}
			}
		}
		JOINT Bip01_L_Clavicle
		{
			OFFSET 0.083944 -0.086202 0.223689
			CHANNELS 3 Zrotation Yrotation Xrotation
			JOINT Bip01_L_UpperArm
			{
				OFFSET 0.098271 -0.000001 0.127570
				CHANNELS 3 Zrotation Yrotation Xrotation
				JOINT Bip01_L_Forearm
				{
					OFFSET 0.217359 0.085453 0.035644
					CHANNELS 3 Zrotation Yrotation Xrotation
					JOINT Bip01_L_Hand
					{
						OFFSET 0.028053 -0.005060 0.194804
						CHANNELS 3 Zrotation Yrotation Xrotation
						End Site #name: Bip01_L_Finger0
						{
							OFFSET -0.038757 -0.064929 0.221962
						}
					}
				}
			}
		}
		JOINT Bip01_L_Thigh_4
		{
			OFFSET 0.182356 -0.107732 -0.153545
			CHANNELS 3 Zrotation Yrotation Xrotation
			JOINT Bip01_L_Thigh1_4
			{
				OFFSET 0.081186 -0.002220 -0.138244
				CHANNELS 3 Zrotation Yrotation Xrotation
				JOINT Bip01_L_Calf
				{
					OFFSET 0.071957 0.156636 -0.213102
					CHANNELS 3 Zrotation Yrotation Xrotation
					JOINT Bip01_L_Foot_4
					{
						OFFSET 0.122050 -0.102099 -0.113845
						CHANNELS 3 Zrotation Yrotation Xrotation
						End Site #name: Bip01_L_FootNub_4
						{
							OFFSET 0.080595 -0.172240 -0.052699
						}
					}
				}
			}
		}
		JOINT Bip01_L_Thigh_3
		{
			OFFSET 0.146084 -0.107732 -0.039202
			CHANNELS 3 Zrotation Yrotation Xrotation
			JOINT Bip01_L_Thigh1_3
			{
				OFFSET 0.116425 -0.017403 -0.077441
				CHANNELS 3 Zrotation Yrotation Xrotation
				JOINT Bip01_L_Calf_3
				{
					OFFSET 0.161961 0.138885 -0.152869
					CHANNELS 3 Zrotation Yrotation Xrotation
					JOINT Bip01_L_Foot_3
					{
						OFFSET 0.137729 -0.105097 -0.037457
						CHANNELS 3 Zrotation Yrotation Xrotation
						End Site #name: Bip01_L_FootNub_3
						{
							OFFSET 0.105029 -0.160237 0.007817
						}
					}
				}
			}
		}
		JOINT Bip01_L_Thigh_2
		{
			OFFSET 0.097046 -0.107732 0.048380
			CHANNELS 3 Zrotation Yrotation Xrotation
			JOINT Bip01_L_Thigh1_2
			{
				OFFSET 0.139204 -0.011609 -0.018495
				CHANNELS 3 Zrotation Yrotation Xrotation
				JOINT Bip01_L_Calf_2
				{
					OFFSET 0.182131 0.145356 -0.070983
					CHANNELS 3 Zrotation Yrotation Xrotation
					JOINT Bip01_L_Foot_2
					{
						OFFSET 0.134455 -0.111918 0.027628
						CHANNELS 3 Zrotation Yrotation Xrotation
						End Site #name: Bip01_L_FootNub_2
						{
							OFFSET 0.079511 -0.166396 0.042703
						}
					}
				}
			}
		}
		JOINT Bip01_L_Thigh_1
		{
			OFFSET 0.088612 -0.107733 0.142641
			CHANNELS 3 Zrotation Yrotation Xrotation
			JOINT Bip01_L_Thigh1_1
			{
				OFFSET 0.118450 -0.010281 0.031779
				CHANNELS 3 Zrotation Yrotation Xrotation
				JOINT Bip01_L_Calf_1
				{
					OFFSET 0.165577 0.100393 -0.000888
					CHANNELS 3 Zrotation Yrotation Xrotation
					JOINT Bip01_L_Foot_1
					{
						OFFSET 0.108766 -0.113488 0.063231
						CHANNELS 3 Zrotation Yrotation Xrotation
						End Site #name: Bip01_L_FootNub_1
						{
							OFFSET 0.033675 -0.148454 0.087814
						}
					}
				}
			}
		}
		JOINT Bip01_R_Thigh_2
		{
			OFFSET -0.104093 -0.107732 0.030383
			CHANNELS 3 Zrotation Yrotation Xrotation
			JOINT Bip01_R_Thigh1_2
			{
				OFFSET -0.134354 -0.011576 -0.040861
				CHANNELS 3 Zrotation Yrotation Xrotation
				JOINT Bip01_R_Calf_2
				{
					OFFSET -0.164191 0.145223 -0.106156
					CHANNELS 3 Zrotation Yrotation Xrotation
					JOINT Bip01_R_Foot_2
					{
						OFFSET -0.132857 -0.116421 0.010547
						CHANNELS 3 Zrotation Yrotation Xrotation
						End Site #name: Bip01_R_FootNub_2
						{
							OFFSET -0.079076 -0.169084 0.026562
						}
					}
				}
			}
		}
		JOINT Bip01_R_Thigh_3
		{
			OFFSET -0.136803 -0.107731 -0.064514
			CHANNELS 3 Zrotation Yrotation Xrotation
			JOINT Bip01_R_Thigh1_3
			{
				OFFSET -0.105223 -0.006819 -0.093469
				CHANNELS 3 Zrotation Yrotation Xrotation
				JOINT Bip01_R_Calf_3
				{
					OFFSET -0.129084 0.130171 -0.188290
					CHANNELS 3 Zrotation Yrotation Xrotation
					JOINT Bip01_R_Foot_3
					{
						OFFSET -0.134634 -0.101699 -0.052980
						CHANNELS 3 Zrotation Yrotation Xrotation
						End Site #name: Bip01_R_FootNub_3
						{
							OFFSET -0.098925 -0.164779 -0.013534
						}
					}
				}
			}
		}
		JOINT Bip01_R_Thigh_4
		{
			OFFSET -0.152202 -0.107730 -0.183480
			CHANNELS 3 Zrotation Yrotation Xrotation
			JOINT Bip01_R_Thigh1_4
			{
				OFFSET -0.054068 -0.012181 -0.150451
				CHANNELS 3 Zrotation Yrotation Xrotation
				JOINT Bip01_R_Calf_4
				{
					OFFSET -0.037189 0.167437 -0.208757
					CHANNELS 3 Zrotation Yrotation Xrotation
					JOINT Bip01_R_Foot_4
					{
						OFFSET -0.099485 -0.097520 -0.140841
						CHANNELS 3 Zrotation Yrotation Xrotation
						End Site #name: Bip01_R_FootNub_4
						{
							OFFSET -0.074606 -0.168926 -0.065557
						}
					}
				}
			}
		}
	}
}
MOTION
Frames: 4
Frame Time: 0.041667
0.000000 0.147757 0.000000 0.823658 -3.654739 -0.100065 -1.869542 1.228356 -1.382128 14.761453 1.293853 -5.499609 12.550587 -6.445979 -13.048137 10.873805 -8.478023 -1.768335 5.127759 -16.543152 -1.641640 -0.208964 -12.535801 13.174828 -18.329601 -1.509872 -0.078541 -22.489308 25.236428 -13.181926 31.260932 49.119471 -9.742660 -0.523125 13.262564 136.931515 80.195724 4.663685 -22.384684 -119.908385 -13.789581 -53.624408 -38.016347 -14.352591 -26.189284 -53.760424 41.779440 68.438424 89.019884 -31.139165 19.193693 -68.061872 -8.122983 -66.556138 30.939065 12.768901 -38.084851 -15.628525 -9.457360 -25.910441 55.610753 -7.139114 -17.453285 -35.685362 35.311486 46.632213 -73.328628 14.732974 2.327330 -97.361851 43.347563 36.219310 -14.377638 19.951105 -52.118546 47.340555 -50.165369 24.245683 21.820559 -9.243555 2.908694 58.327615 56.705528 -125.718097 -41.711189 -31.172951 -47.951593 164.076387 -40.560144 -0.182374 59.046064 -1.070718 9.324074 23.173444 -8.722792 -131.935020 -73.298566 -46.388762 8.686297 -172.062394 3.270694 49.496298 58.851951 14.187077 7.039140 0.949174 -29.626560 -137.138278 -73.583930 -32.664281 30.542121 177.411769 29.006277 60.140837 56.503765 27.820817 22.027795 1.296807 -45.615703 139.138804 62.988078 3.985474 -34.835936 -148.372584 25.236170 -51.001037 -37.212827 4.638897 -22.583876 40.112991 -55.390153 80.091506 32.805118 -7.327660 -36.423807 -99.709186 69.023725 -18.609999 -42.938926 14.526198 -13.157706 44.279693 -23.664438 40.555095 15.669586 -20.417879 -23.859309 28.605985 69.573078 52.746043 -39.969188 26.776900 -11.919658 
-0.002482 0.147757 0.018814 0.823658 -3.654739 -0.100065 -1.728170 1.228144 -1.442001 14.605693 1.295109 -5.549338 11.991592 -6.216946 -13.030854 10.800233 -8.455557 -1.762488 5.281031 -16.547859 -1.643989 -0.349941 -12.412359 13.142630 -18.360410 -1.417850 -0.159158 -22.489307 25.236428 -13.181926 31.260931 49.119471 -9.742660 0.865616 15.989407 138.090169 80.257801 4.685861 -22.315226 -118.754721 -14.014242 -52.314461 -37.869515 -14.562492 -24.713580 -54.956798 41.944554 67.919951 89.017063 -31.125350 19.160606 -68.061872 -8.122983 -66.556138 30.939065 12.768901 -38.084851 -14.722801 -9.029001 -25.292389 55.586440 -7.422490 -18.117871 -35.163157 35.514733 45.994620 -73.060777 15.468679 2.310435 -95.773664 45.748377 36.467417 -14.123259 19.491051 -51.778312 47.608276 -53.162866 21.906224 22.815179 -10.547263 0.839177 56.606220 56.386713 -127.409049 -41.628667 -31.066902 -47.929128 164.888926 -40.671032 -0.701217 59.440471 -1.128467 9.245013 23.432657 -6.766437 -130.537381 -73.094149 -46.342600 8.512789 -171.454977 2.973442 49.429222 59.299124 14.218024 7.104851 1.738540 -27.364295 -136.046585 -73.455525 -32.652192 30.412992 178.951386 28.152309 60.787558 57.691765 28.209287 22.453244 -0.804862 -42.820054 139.629407 62.775712 4.121962 -34.582762 -149.604606 24.991569 -52.996218 -37.861021 4.791398 -23.656142 42.579220 -56.097489 77.717870 32.934598 -7.577685 -36.715715 -96.173364 68.490727 -14.314564 -42.066114 14.177164 -12.244065 45.095803 -23.990058 39.481178 15.646410 -21.012671 -23.826014 27.558669 68.298681 52.652035 -39.203144 26.394782 -10.925066 
-0.004965 0.147757 0.037628 0.823658 -3.654739 -0.100065 -1.586748 1.226881 -1.501787 14.449802 1.296318 -5.600076 11.432291 -5.988645 -13.017303 10.726703 -8.432983 -1.756789 5.434263 -16.552618 -1.646191 -0.490924 -12.288912 13.110348 -18.391394 -1.325857 -0.239725 -22.489307 25.236428 -13.181926 31.260931 49.119471 -9.742660 2.504849 18.744939 139.437025 80.328175 4.710872 -22.236584 -117.438252 -14.307216 -50.824376 -37.710469 -14.802781 -23.025496 -56.162022 42.089851 67.409414 89.014326 -31.111595 19.127502 -68.061872 -8.122983 -66.556138 30.939065 12.768901 -38.084851 -13.813545 -8.610451 -24.668176 55.565527 -7.706144 -18.782817 -34.642804 35.722501 45.358321 -72.785427 16.203734 2.301635 -94.128503 48.108882 36.812212 -13.812928 18.891205 -51.356575 48.047204 -55.918209 19.557193 23.786453 -11.730410 -1.084541 54.790220 56.045543 -129.181240 -41.543010 -30.957463 -47.904221 165.692972 -40.777093 -1.216065 59.822739 -1.185481 9.166052 23.667575 -4.722365 -129.063530 -72.914966 -46.301781 8.361526 -170.920591 2.713154 49.367926 59.692753 14.244852 7.162891 2.402439 -25.029941 -134.814888 -73.336249 -32.640948 30.293789 -179.656730 27.356899 61.354445 58.784334 28.560086 22.849452 -2.640852 -39.769026 139.751150 62.567695 4.256914 -34.334554 -150.742228 24.727384 -54.808194 -38.453843 4.919723 -24.634282 45.228859 -56.644946 75.166892 33.063910 -7.834046 -37.011581 -92.545535 67.835894 -9.881486 -41.122127 13.784925 -11.274223 45.948346 -24.218934 38.349869 15.621576 -21.631170 -23.787038 26.541497 66.952969 52.633502 -38.401484 25.978469 -9.886681 
-0.007448 0.147757 0.056442 0.823658 -3.654739 -0.100065 -1.445377 1.227264 -1.561650 14.293951 1.297233 -5.650860 10.872731 -5.761115 -13.007521 10.653150 -8.410430 -1.751067 5.587456 -16.557203 -1.648286 -0.631959 -12.165450 13.078084 -18.422603 -1.233886 -0.320265 -22.489306 25.236428 -13.181926 31.260931 49.119471 -9.742660 4.342451 21.396484 140.930961 80.397251 4.735328 -22.159340 -116.008276 -14.632131 -49.212419 -37.526733 -15.043376 -21.190908 -57.375998 42.214982 66.907228 89.011490 -31.097770 19.094455 -68.061872 -8.122983 -66.556138 30.939065 12.768901 -38.084851 -12.900691 -8.201657 -24.038012 55.547905 -7.989999 -19.448078 -34.123926 35.934967 44.722635 -72.502409 16.937930 2.301115 -92.518879 50.283752 37.235278 -13.505095 18.275496 -50.933433 48.632128 -58.362008 17.274146 24.688430 -12.764137 -2.814083 52.974841 55.703677 -130.936159 -41.462827 -30.854820 -47.880661 166.443908 -40.871235 -1.698220 60.177938 -1.238961 9.092420 23.864267 -2.704182 -127.605794 -72.770929 -46.268505 8.239292 -170.489038 2.503276 49.316304 60.010917 14.266258 7.209946 2.940646 -22.771403 -133.544390 -73.216481 -32.629890 30.174876 -178.485757 26.650718 61.804525 59.716630 28.853156 23.168371 -4.129280 -36.673372 139.538983 62.390535 4.372845 -34.123006 -151.708707 24.467016 -56.341209 -38.960560 5.021059 -25.468611 47.927322 -57.006213 72.574377 33.192135 -8.088126 -37.304314 -89.090039 67.077048 -5.613792 -40.165441 13.371395 -10.302422 46.777258 -24.336557 37.241330 15.594505 -22.231751 -23.741897 25.624304 65.602543 52.694412 -37.596474 25.549415 -8.860299 
